<?xml version="1.0" encoding="UTF-8" standalone="no"?>
<svg xmlns="http://www.w3.org/2000/svg" xmlns:xlink="http://www.w3.org/1999/xlink" version="1.0" viewBox="0 0 100 100">
  <a xlink:href="http://wiktionary.org/wiki/%E6%9B%B8">
    <path d="M40.23 5.78c-.11.48 4.28 3.07 3.42 7.83v.78c-3.99.78-7.27 1.43-9.84 1.96l-2.99.39c-.004139.26.14.78.42 1.56.289018.26.86.78 1.72 1.57 2.939094 1.153569 6.132 2.34 9.41 2.34l1.282717.002928v3.129435C41.655831 25.863976 42.57 25.32 36.81 27.3c-5.732909 1.962034-21.240882 4.545529-31.6677393 7.430686-.3200866.412893 0 .782333 0 .782333l6.8463043 5.476536c1.956607-.068382 2.068025-.162882 3.423152-.782334 1.141028-.782343 3.137863-1.564686 5.990515-2.347101l22.250485-7.041293v3.911859C38.627282 36.974502 33.052397 37.496403 27.82064 39.03l-2.139469.394806v.782415C30.711452 44.67402 36.783623 43.123626 42.796929 41.77v.784313c-2.591729 2.671524-5.447837 4.073697-8.985773 5.085297-1.541124.470565-3.362871.193014-4.706833.391167-3.085522.455013.841089 3.649859 2.567363 5.085368l1.711576 1.173582C34.436445 54.719891 38.489692 53.4 41.09 52.72l1.706929-.777374C39.783111 58.980347 28.880521 60.29 21.83 60.94c-1.99283.11392-3.137787.260584-3.423027.782116L17.98 62.11v.79c2.48 2.49 7.89 4.56 10.27 3.52l5.13-1.959616c-1.71 2.347101-2.70677 4.303025-2.99 5.867702C29.88 76.711678 35.719546 89.8791 36.81 90.28c.98.358376 11.250194-2.844877 17.11-3.13 2.07 2.276616 4.433326 7.756356 5.14 7.82 2.78.262679 3.920797-1.375115 5.55952-2.74C69.33 87.600165 70.5602 81.096028 74.033189 75.8c.996811-1.56154 1.884634-2.904043 2.139472-4.689571C75.85 66.109742 71.593793 62.323568 66.331095 61.72 56 60.721532 45.03278 64.020104 36.378519 69.154576L35.094838 69.94 34.24 69.936919c.854797-2.60783 1.425321-4.172579 1.71-4.696919l.86-1.561959C47.71431 60.554708 53.616781 57.72 70.18 57.42h5.99l.86-.783253c-.244987-2.771451-2.808921-4.525506-5.564176-5.086747L50.14 53.733815c.929488-2.165166 1.785276-3.095135 2.07-3.353815.57-.784465 1.56948-1.306006 2.995853-1.566808 4.204147-1.559025 8.846123-1.84059 13.26471-2.738268l.859437-.391167c-.221459-2.016792-.89995-3.040893-3-3.523757-2.65-.658426-5.445675-.371056-8.128888.003074L55.63 42.55c2.78-2.827258 6.333129-4.81102 9.845308-6.65-.005308.004195.807928-.72673.27306-1.8-.538368-1.078207-1.10661-1.396078-2.41253-2.5.574162-1.041903 1.140981-1.824246 1.711576-2.35C72.25 24.579001 80.91311 24.662485 91.576846 27.3c1.743154.607705 2.330191.60622 3.423154-.39-1.77-7.225802-12.775997-7.040969-18.827339-5.09-1.032661.167019-1.936209.392928-2.995265.39H71.89c.91-1.376403.948062-2.492322.431609-3.91-4.101609-5.507236-11.144234-6.731488-17.971543-5.866633L53.07 12.82c-.22765-1.478216 1.543306-3.36.85-3.91C50.34 6.07 42.01 4.96 41.51 5c-.51.04-1.17.31-1.28.78zm11.98 14.09c1.997374-1.829651 3.14-2.74 3.42-2.74 2.204178-1.34731 4.49-1.52 6.42 0l.43005.3887C62.46 19.18 61.88 20.75 61.2 22.21l-.43.7852c-3.424741.2648-5.85.6548-7.28 1.1748l-2.14.39.85-4.69zm5.99 7.82c-1.12 2.2-2.78 3.09-5.39 4.3l-1.46.39v-3.13l6.85-1.56zm6.85 39.12c4.35 3.54-1.53 12.85-5.14 17.99-1.07 2.49-2.59.75-4.28-.39-2.34-1.42-4.82-1.12-7.7-.39 3.23-4.3 2.65-5.8 7.55-6.25 4.78-.44 2.14-2.48 1.15-3.06-.96-.56-16.41.72-17.26 1.09-2.86 1.99 3.59 3.36 5.14 3.52l.85.79-5.99 4.69h-.85c-2.46-2.2-2.24-6.23-2.57-9.39-.18-2.27 2.35-3.11 4.28-3.91 1.25-.57 2.64-1.06 4.28-1.56 4.79-.69 19.12-4.29 20.54-3.13z"/>
  </a>
</svg>